<svg width="600" height="500" viewBox="0 0 922 825" fill="none" xmlns="http://www.w3.org/2000/svg">
<path d="M815.637 231.805C884.469 246.113 928.101 305.153 914.804 377.246C911.806 395.331 897.721 408.199 879.769 405.594C861.818 402.99 851.323 389.375 866.174 371.307C870.563 356.564 879.496 348.828 874.599 334.136C868.028 309.928 825.743 281.337 802.849 272.604C778.935 262.771 790.303 226.976 815.673 231.801L815.637 231.805Z" fill="#B5FF3F"/>
<path d="M412.031 48.9761C398.344 69.1184 375.624 106.707 382.156 128.514C383.98 131.801 385.552 131.676 389.032 132.597C408.642 136.797 418.774 157.684 411.654 179.251C403.461 205.543 372.188 219.747 352.654 206.307L346.106 201.934C320.886 185.848 310.265 153.393 317.634 120.327C326.729 81.0108 351.563 47.6291 378.809 18.7075C401.983 -4.30659 431.138 22.5891 411.977 48.9689L412.031 48.9761Z" fill="#B5FF3F"/>
<path d="M820.048 392.354C791.506 480.949 663.971 532.807 589.469 525.005C565.212 522.49 537.08 516.844 508.629 508.118C428.427 483.685 345.672 435.076 339.654 363.676C335.322 311.988 391.743 139.052 446.594 94.19C499.803 50.6625 585.384 57.7176 653.822 67.3676C793.161 86.9755 850.87 296.573 820.048 392.354Z" fill="#B5FF3F"/>
<path d="M714.772 285.065C714.772 345.697 649.395 415.434 587.886 415.434C526.377 415.434 476.515 366.282 476.515 305.65C476.515 245.017 526.377 195.865 587.886 195.865C649.395 195.865 714.772 224.433 714.772 285.065Z" fill="white"/>
<path d="M453.137 582.142C455.054 448.015 426.401 338.736 389.137 338.061C351.874 337.386 320.111 445.57 318.193 579.697C316.276 713.824 344.929 823.103 382.193 823.778C419.456 824.453 451.219 716.269 453.137 582.142Z" fill="#B5FF3F"/>
<path d="M466.737 239.284C463.606 252.744 470.174 267.402 479.874 274.224C488.733 280.493 500.648 280.125 509.126 273.026C517.604 265.927 524.325 253.85 523.408 240.759C522.339 225.363 514.549 212.272 501.947 208.032C491.636 204.528 479.492 207.663 471.778 216.974C464.064 226.285 461.009 240.206 463.911 253.297C466.813 266.388 475.368 276.068 485.831 279.203C499.808 283.444 513.479 273.118 517.986 257.169C520.201 249.333 517.68 239.93 512.945 234.306C507.598 227.853 501.107 226.931 494.004 228.221C493.24 228.406 492.476 228.59 491.712 228.867L497.135 227.945C496.371 228.037 495.607 228.129 494.844 227.945L500.495 228.867C498.968 228.59 497.364 228.313 495.913 227.668L501.106 230.342C500.648 230.065 500.19 229.789 499.732 229.42L504.162 233.568C503.55 232.923 503.016 232.37 502.481 231.632L505.918 236.979C505.46 236.15 505.078 235.412 504.696 234.582L506.911 240.944C506.529 239.745 506.224 238.547 506.071 237.348L506.835 244.447C506.835 243.433 506.835 242.603 506.835 241.681L506.071 248.78C506.147 248.134 506.3 247.581 506.453 246.936L504.238 253.297C504.543 252.375 504.925 251.638 505.384 250.9L501.947 256.339C502.252 255.879 502.634 255.418 503.092 255.049L498.586 259.197C499.273 258.644 499.884 258.183 500.572 257.815L495.226 260.488C495.989 260.119 496.677 259.935 497.517 259.751L491.559 260.672C492.4 260.672 493.087 260.58 493.927 260.672L487.97 259.751C488.733 259.935 489.497 260.119 490.261 260.396L484.915 257.63C485.678 257.999 486.289 258.46 486.9 259.013L482.394 254.772C482.776 255.141 483.158 255.602 483.463 256.155L479.95 250.624C479.95 250.624 480.485 251.546 480.714 252.099L478.423 245.645C478.728 246.475 478.881 247.213 479.034 248.042L478.193 240.851C478.27 242.234 478.27 243.709 478.193 245.092L478.957 237.901C478.805 238.823 478.652 239.561 478.423 240.39L480.638 234.029C480.256 235.136 479.797 236.058 479.186 237.072L482.623 231.725C482.165 232.37 481.707 232.923 481.096 233.476L485.449 229.42C484.838 229.881 484.304 230.249 483.616 230.618L488.733 228.037C488.275 228.221 487.817 228.406 487.359 228.406L493.011 227.484C492.552 227.484 492.094 227.576 491.559 227.484L497.135 228.406C496.448 228.313 495.837 228.129 495.149 227.853L500.114 230.342C499.503 229.973 498.968 229.604 498.357 229.143L502.481 233.015C501.947 232.462 501.488 231.909 501.03 231.264L504.238 236.242C502.71 233.753 501.488 230.71 499.503 228.682C493.851 223.243 487.664 220.109 480.332 222.598C473.687 224.81 468.417 231.171 466.584 239.192L466.737 239.284Z" fill="#3E3D4D"/>
<path d="M629.035 242.879C618.571 253.112 615.669 272.288 622.39 286.209C628.653 299.208 640.415 306.767 652.788 306.675C665.161 306.583 678.451 297.733 684.714 284.457C691.358 270.352 691.129 254.126 684.408 240.113C670.508 210.889 633.236 210.243 619.488 239.837C610.934 258.183 614.676 282.89 630.104 294.137C642.324 303.08 661.113 301.42 670.737 287.684C676.541 279.387 680.971 267.678 677.534 256.615L677.305 255.97C675.014 248.503 671.501 241.22 665.39 237.255C659.28 233.291 652.406 232.001 645.456 234.121C641.332 235.319 635.909 238.638 633.236 242.51C630.868 245.829 639.575 237.993 635.985 239.929L642.324 236.702C641.79 236.979 641.179 237.163 640.568 237.163L647.594 236.057C646.983 236.057 646.373 236.057 645.838 236.057L652.864 237.163C652.253 237.071 651.719 236.887 651.184 236.61L657.447 239.837C660.197 242.049 662.488 244.723 664.321 248.042L666.994 255.601C666.689 254.772 666.536 253.942 666.46 253.112L667.376 261.502C667.3 260.672 667.376 259.75 667.376 258.92L666.46 267.31C667.071 264.267 666.612 265.466 664.932 271.089C661.801 275.422 661.19 276.529 662.946 274.224C660.808 276.897 658.211 278.741 655.156 279.663C655.843 279.387 656.454 279.202 657.142 279.11L650.268 280.216C651.337 280.124 652.253 280.216 653.323 280.216L646.449 279.11C649.733 279.848 648.358 281.046 644.234 277.451C646.449 279.479 646.984 280.585 642.477 275.33C645.303 278.649 639.422 268.324 641.102 272.841L639.346 267.678C639.575 268.416 639.728 269.246 639.804 270.075L638.888 261.962C638.964 262.792 638.964 263.622 638.888 264.452L639.804 256.339C639.422 259.75 638.047 260.211 641.179 253.758C639.193 257.814 645.532 248.318 642.554 251.453L645.991 248.318C645.38 248.779 644.845 249.24 644.158 249.517C644.081 248.503 651.261 246.843 646.143 247.857L652.712 246.751C651.643 246.843 650.726 246.843 649.657 246.751L656.225 247.857C653.857 247.212 654.85 247.857 659.204 249.701C657.065 248.134 657.905 248.964 661.801 252.282C664.474 256.892 665.238 257.998 663.939 255.509C662.717 253.204 661.342 251.084 659.815 249.148C658.364 247.212 656.607 245.553 654.621 244.262C658.287 247.95 659.28 248.779 657.676 246.935C660.197 251.084 660.884 252.098 659.662 249.978C658.746 247.949 659.127 248.964 660.731 253.112C658.364 245.368 654.239 239.284 647.442 237.071C640.644 234.858 634.381 237.624 628.882 242.971L629.035 242.879Z" fill="#3E3D4D"/>
<path d="M464.822 160.738C475.744 132.343 503.545 128.379 519.737 152.625C526.687 163.042 538.755 148.292 531.881 137.967C509.121 103.948 465.204 110.586 449.929 150.228C445.346 162.305 460.087 172.815 464.746 160.738H464.822Z" fill="#3E3D4D"/>
<path d="M651.261 160.922C679.749 132.343 720.84 154.469 723.055 198.721C723.742 211.996 740.927 212.088 740.239 198.721C737.108 135.754 679.062 106.161 639.117 146.264C630.639 154.838 642.859 169.404 651.261 160.922Z" fill="#3E3D4D"/>
<path d="M573.816 327.694C573.816 348.806 559.61 365.953 542.12 365.953C524.63 365.953 510.5 348.806 510.5 327.694C510.5 321.149 511.799 315.064 514.166 309.717C519.513 297.64 529.976 289.435 542.12 289.435C556.326 289.435 568.317 300.682 572.365 316.263C573.358 319.858 573.816 323.73 573.816 327.694Z" fill="#3E3D4D" stroke="#3E3D4D" stroke-width="8.22887" stroke-miterlimit="10" stroke-linecap="round"/>
<path d="M480.029 253.85C484.669 253.85 488.431 249.31 488.431 243.709C488.431 238.108 484.669 233.568 480.029 233.568C475.389 233.568 471.628 238.108 471.628 243.709C471.628 249.31 475.389 253.85 480.029 253.85Z" fill="white"/>
<path d="M632.626 272.933C637.266 272.933 641.027 268.393 641.027 262.792C641.027 257.192 637.266 252.651 632.626 252.651C627.986 252.651 624.224 257.192 624.224 262.792C624.224 268.393 627.986 272.933 632.626 272.933Z" fill="white"/>
<path d="M572.364 316.263C565.948 323.269 556.325 327.694 545.632 327.694C531.884 327.694 519.97 320.319 514.165 309.717C519.511 297.64 529.975 289.435 542.119 289.435C556.325 289.435 568.316 300.682 572.364 316.263Z" fill="white"/>
<path opacity="0.59" d="M615.325 476.445C543.63 574.327 398.86 557.968 332.629 549.991C291.738 545.057 140.121 526.873 85.7197 412.632C75.9923 392.15 60.7408 364.435 68.4266 332.326C77.974 292.578 117.544 263.579 277.867 207.878C430.203 154.948 507.062 128.923 544.351 146.364C641.986 192.195 692.364 371.127 615.325 476.377V476.445Z" fill="url(#paint0_linear_56_9854)"/>
<path d="M347.343 569.232L472.478 528.359L308.133 452.716" fill="#767B77"/>
<path d="M347.343 569.232L472.478 528.359L308.133 452.716" stroke="#767B77" stroke-width="16.4577" stroke-linecap="round" stroke-linejoin="round"/>
<path d="M92.3866 282.843L326.386 333.677C337.915 336.178 346.861 347.264 348.663 361.325L372.261 544.515C375.203 567.296 358.751 586.832 340.076 582.776L110.581 532.888C99.3519 530.455 90.5252 519.842 88.4235 506.187L60.3221 322.05C56.7794 298.999 73.352 278.787 92.3866 282.911V282.843Z" fill="#3E3D4D"/>
<path d="M194.043 452.244C203.561 452.244 211.276 443.558 211.276 432.844C211.276 422.129 203.561 413.443 194.043 413.443C184.525 413.443 176.81 422.129 176.81 432.844C176.81 443.558 184.525 452.244 194.043 452.244Z" fill="white"/>
<path d="M200.769 398.909C204.583 398.909 207.674 395.429 207.674 391.136C207.674 386.842 204.583 383.362 200.769 383.362C196.955 383.362 193.864 386.842 193.864 391.136C193.864 395.429 196.955 398.909 200.769 398.909Z" fill="white"/>
<path d="M220.526 413.983C222.913 413.983 224.849 411.804 224.849 409.116C224.849 406.428 222.913 404.249 220.526 404.249C218.138 404.249 216.202 406.428 216.202 409.116C216.202 411.804 218.138 413.983 220.526 413.983Z" fill="white"/>
<defs>
<linearGradient id="paint0_linear_56_9854" x1="113.285" y1="216.362" x2="615.16" y2="459.507" gradientUnits="userSpaceOnUse">
<stop stop-color="#B5FF9F"/>
<stop offset="1" stop-color="white"/>
</linearGradient>
</defs>
</svg>
