<svg width="421" height="465" viewBox="0 0 421 465" fill="none" xmlns="http://www.w3.org/2000/svg">
<path d="M75.7915 464.558C116.477 464.35 148.983 371.24 148.396 256.591C147.809 141.941 114.352 49.1687 73.6669 49.3769C32.9818 49.5851 0.475618 142.695 1.06232 257.344C1.64903 371.994 35.1064 464.766 75.7915 464.558Z" fill="#B5FF3F"/>
<path d="M419.013 166.927C420.037 77.3563 327.93 3.68261 213.287 2.37244C98.6435 1.06227 4.87708 72.6118 3.85345 162.182C2.82982 251.753 94.9366 325.426 209.58 326.737C324.223 328.047 417.989 256.498 419.013 166.927Z" fill="#B5FF3F"/>
<path d="M286.636 171.656C287.299 113.576 286.636 117.491 216.19 67.8269C185.634 102.991 143.298 113.575 142.634 171.656C141.971 229.737 151.658 227.254 216.191 227.992C280.725 228.729 285.972 229.737 286.636 171.656Z" fill="#F9FBF5"/>
<path d="M242.887 61.7746C250.005 61.7746 255.775 56.0047 255.775 48.8873C255.775 41.7698 250.005 36 242.887 36C235.77 36 230 41.7698 230 48.8873C230 56.0047 235.77 61.7746 242.887 61.7746Z" fill="#FFB487"/>
<path d="M75.8428 405.959C91.5326 403.919 102.952 392.271 101.349 379.943C99.7454 367.615 85.7266 359.276 70.0368 361.317C54.347 363.357 42.9276 375.005 44.5309 387.332C46.1342 399.66 60.153 408 75.8428 405.959Z" fill="#FFB487"/>
<path d="M43.9635 328.675C55.4805 327.177 63.8616 318.618 62.6832 309.557C61.5048 300.496 51.2131 294.365 39.6961 295.863C28.1791 297.36 19.7981 305.92 20.9765 314.981C22.1549 324.042 32.4466 330.173 43.9635 328.675Z" fill="#FFB487"/>
<path d="M225.524 295.388C235.396 294.104 242.581 286.781 241.574 279.032C240.566 271.282 231.746 266.041 221.874 267.325C212.003 268.609 204.817 275.932 205.825 283.681C206.833 291.431 215.652 296.672 225.524 295.388Z" fill="#FFB487"/>
<path d="M397.579 190.463C404.696 190.463 410.466 184.693 410.466 177.575C410.466 170.458 404.696 164.688 397.579 164.688C390.461 164.688 384.691 170.458 384.691 177.575C384.691 184.693 390.461 190.463 397.579 190.463Z" fill="#FFB487"/>
<path d="M349.215 246.337C364.905 244.297 376.324 232.649 374.721 220.321C373.117 207.994 359.099 199.654 343.409 201.695C327.719 203.735 316.3 215.383 317.903 227.711C319.506 240.039 333.525 248.378 349.215 246.337Z" fill="#FFB487"/>
<path d="M112.655 100.646C119.124 92.2435 119.008 81.3057 112.396 76.216C105.784 71.1262 95.1809 73.8118 88.7123 82.2144C82.2438 90.617 82.3598 101.555 88.9713 106.645C95.5829 111.734 106.186 109.049 112.655 100.646Z" fill="#FFB487"/>
<path d="M329.215 157.337C344.905 155.297 356.324 143.649 354.721 131.321C353.117 118.994 339.099 110.654 323.409 112.695C307.719 114.735 296.3 126.383 297.903 138.711C299.506 151.039 313.525 159.378 329.215 157.337Z" fill="#FFB487"/>
<path d="M78.2149 241.337C93.9047 239.297 105.324 227.649 103.721 215.321C102.118 202.994 88.0987 194.654 72.4089 196.695C56.7191 198.735 45.2997 210.383 46.903 222.711C48.5063 235.039 62.5251 243.378 78.2149 241.337Z" fill="#FFB487"/>
<path d="M135.345 144.404C130.512 145.057 127.987 150.456 127.073 154.636C125.723 160.601 129.075 166.652 133.56 170.484C142.093 177.755 154.545 176.884 162.034 168.481C169.522 160.078 170.611 146.755 162.556 138.44C154.502 130.124 140.221 129.863 131.209 137.525C122.806 144.666 121.761 157.335 127.726 166.348C135.04 177.363 150.496 180.367 160.249 170.658C164.515 166.435 166.431 160.992 164.428 155.158C163.296 151.893 160.945 149.455 157.506 148.932C156.243 148.758 155.155 148.715 153.849 149.106C152.76 149.411 152.934 149.455 154.458 149.194C152.934 149.15 151.541 149.455 150.235 150.151C149.059 150.587 148.189 151.196 147.1 151.762C149.19 150.587 145.141 151.936 148.101 151.675C148.189 151.675 146.012 151.675 145.968 151.719C146.578 150.848 149.843 153.547 147.666 151.849C148.014 152.154 149.669 154.331 149.19 153.199C148.406 151.414 149.887 156.16 149.059 153.112C148.406 150.63 148.929 154.505 148.885 155.071C149.103 153.025 148.363 155.724 147.84 156.595L146.665 157.379C147.884 156.682 147.666 156.682 146.055 157.379C146.795 157.161 149.669 156.639 146.273 157.161C149.016 156.769 143.922 156.377 146.491 157.248C144.793 156.639 144.009 156.116 143.007 154.549C144.575 156.9 142.224 151.849 142.92 154.549C142.703 152.633 142.616 152.198 142.659 153.199C142.659 153.634 142.659 154.026 142.659 154.462L142.833 152.764C142.441 154.07 142.572 153.896 143.225 152.198C142.311 153.722 142.006 153.591 143.225 152.459C141.44 154.07 144.836 151.675 145.141 151.501C143.312 152.285 146.447 151.545 147.318 151.632C145.141 151.37 148.58 151.719 148.885 152.764C148.711 152.067 147.1 150.717 148.493 152.546C146.969 150.543 146.012 149.237 143.965 147.713C143.051 147.06 143.225 147.191 144.444 148.105C143.835 147.496 143.791 147.452 144.227 147.974L144.531 148.323C143.748 147.017 142.746 146.015 141.44 145.232C139.481 144.056 137.652 143.969 135.432 144.274L135.345 144.404Z" fill="#3E3D4D"/>
<path d="M132.703 29.8288C139.016 10.106 162.222 4.31535 177.155 18.683C181.683 23.0368 188.649 16.1578 184.078 11.7604C163.789 -7.78825 131.832 0.44048 123.255 27.2165C121.339 33.2248 130.787 35.7935 132.703 29.8288Z" fill="#3E3D4D"/>
<path d="M299.587 30.1247C304.985 10.2713 327.712 2.86981 343.386 16.6714C348.088 20.8076 355.054 13.9285 350.309 9.7488C329.28 -8.79849 297.54 0.213934 290.139 27.5124C288.484 33.6077 297.932 36.2201 299.587 30.1247Z" fill="#3E3D4D"/>
<path d="M320.96 142.532C319.654 149.455 322.876 155.898 328.841 159.512C334.022 162.647 341.293 162.299 346.213 158.815C351.132 155.332 354.702 149.716 354.659 143.359C354.572 135.784 349.304 129.209 342.163 127.033C335.981 125.16 328.623 126.728 323.965 131.299C319.306 135.871 317.521 142.445 319.175 148.671C320.83 154.897 325.619 160.078 331.845 161.82C335.894 162.952 340.335 162.473 343.949 160.296C346.3 158.859 349.13 156.551 350.262 153.939C352.09 149.716 352.395 145.493 349.391 141.618C346.604 138.004 342.163 136.611 337.723 137.656C337.635 137.656 336.242 138.048 336.242 138.048C336.242 137.743 339.943 137.961 337.287 137.699L340.553 138.135C339.116 137.83 337.679 137.699 336.242 137.525L339.551 137.961C337.984 137.743 338.289 137.09 340.509 138.614L342.207 139.963C341.597 139.354 341.685 139.528 342.512 140.486C343.208 141.444 343.383 141.661 343.034 141.139C342.512 140.268 342.773 140.878 343.731 142.968C343.644 142.489 343.47 141.966 343.383 141.444L343.818 144.796C343.818 144.274 343.818 143.795 343.818 143.272L343.383 146.625C343.426 146.276 343.513 145.972 343.644 145.623L342.381 148.627C342.991 147.234 343.557 147.626 341.51 149.455L339.725 150.804C340.03 150.63 340.335 150.456 340.64 150.325L337.592 151.588C338.114 151.414 338.55 151.283 339.072 151.196L335.676 151.632C336.199 151.588 336.678 151.588 337.244 151.632L333.848 151.196C334.37 151.283 334.849 151.37 335.328 151.545L332.28 150.238C332.846 150.5 334.109 151.414 332.28 150.021C331.627 149.629 331.061 149.106 330.713 148.453C329.973 147.408 329.799 147.234 330.234 147.974L328.928 144.927C329.102 145.362 329.233 145.754 329.32 146.233L328.841 142.837C328.928 143.621 328.884 144.404 328.797 145.144L329.233 141.748C328.884 143.403 328.449 142.402 329.929 140.529C329.624 140.965 328.71 142.358 330.103 140.442C330.887 139.528 331.018 139.267 330.626 139.702C329.929 140.355 330.452 139.963 332.193 138.483C332.803 138.178 335.415 137.482 333.369 137.874L336.591 137.438C336.286 137.438 335.981 137.438 335.633 137.438L338.811 137.874C337.548 137.699 337.2 137.046 339.943 138.527C338.463 137.743 341.989 140.355 341.075 139.397C340.683 139.006 340.857 139.18 341.554 140.051C342.251 141.008 342.381 141.139 341.946 140.486C341.859 139.31 340.509 138.265 339.638 137.482C336.721 134.695 332.672 133.52 328.71 134.608C325.184 135.566 321.57 138.701 320.873 142.445L320.96 142.532Z" fill="#3E3D4D"/>
<path d="M255.741 244.891L284.825 256.864L255.741 244.891Z" fill="#3E3D4D"/>
<path d="M255.741 244.891L284.825 256.864" stroke="#3E3D4D" stroke-width="7.56379" stroke-miterlimit="10" stroke-linecap="round"/>
<path d="M261.226 179.975C257.395 193.167 245.335 203.529 231.751 205.358" stroke="#3E3D4D" stroke-width="7.56379" stroke-miterlimit="10" stroke-linecap="round"/>
<path d="M313.211 168.133C317.608 180.933 334.327 187.725 346.431 181.63" stroke="#3E3D4D" stroke-width="7.56379" stroke-miterlimit="10" stroke-linecap="round"/>
</svg>
