<svg width="143" height="65" viewBox="0 0 143 65" fill="none" xmlns="http://www.w3.org/2000/svg">
<path d="M114.606 61.577C115.375 59.0646 115.69 56.4047 115.518 53.7433C115.467 52.9403 114.718 52.3287 113.846 52.3757C112.898 52.4196 112.198 53.2571 112.389 54.1134C112.884 56.4125 112.966 58.8152 112.607 61.1928C112.46 62.3533 114.238 62.6921 114.606 61.5786V61.577Z" fill="#59CDFF"/>
<path d="M108.173 61.2266C107.385 58.9669 107.051 56.5706 107.203 54.1689C107.248 53.4443 107.993 52.8867 108.865 52.9221C109.814 52.954 110.52 53.7037 110.335 54.4775C109.856 56.555 109.792 58.7226 110.169 60.8639C110.323 61.9094 108.549 62.2293 108.173 61.228L108.173 61.2266Z" fill="#59CDFF"/>
<path d="M103.934 38.249C106.718 41.8837 104.276 41.2174 107.623 43.9167C109.37 45.3256 115.639 46.3215 109.518 49.3745C107.563 52.3883 103.786 55.1313 100.802 54.5108C96.3241 52.6418 95.4761 49.3847 94.5416 44.5219C94.2764 43.1419 95.7721 39.2837 97.3835 37.8035C99.2425 36.7109 102.828 37.1515 103.934 38.249Z" fill="#59CDFF"/>
<path d="M110.82 43.1549C117.922 36.6249 112.224 25.8966 115.564 16.436C116.712 13.1878 123.434 13.7523 127.388 16.436C130.861 22.9496 134.257 38.8813 126.019 48.8346C118.158 56.7173 107.577 55.9479 99.7306 54.1771C97.0896 52.2738 97.8608 47.1275 99.7979 44.8918C103.236 42.9545 109.425 44.4052 110.82 43.1549Z" fill="#59CDFF"/>
<path d="M112.82 1.01777C88.4096 0.326486 81.4992 5.22494 81.3107 11.8787C81.1223 18.5324 87.7272 24.4218 112.138 25.1131C136.548 25.8044 142.445 21.4226 142.634 14.7688C142.822 8.11505 137.23 1.70906 112.82 1.01777Z" fill="#59CDFF"/>
<path opacity="0.45" d="M108.043 21.6169C112.31 20.5121 114.844 16.2839 113.705 12.173C112.565 8.06216 108.182 5.62525 103.915 6.73005C99.6483 7.83485 97.1135 12.063 98.2534 16.1739C99.3932 20.2848 103.776 22.7217 108.043 21.6169Z" fill="#B5FFDD"/>
<path opacity="0.45" d="M126.75 16.8874C131.017 15.7826 133.551 11.5544 132.412 7.44355C131.272 3.33266 126.889 0.895756 122.622 2.00056C118.355 3.10536 115.821 7.3335 116.96 11.4444C118.1 15.5553 122.483 17.9922 126.75 16.8874Z" fill="#B5FFDD"/>
<path d="M106.657 5.17804C106.722 3.86267 108.095 3.12891 109.288 3.76747C109.718 3.99682 110.105 3.35813 109.671 3.12645C107.966 2.21835 105.981 3.30141 105.891 5.17532C105.867 5.65159 106.633 5.65431 106.657 5.18122L106.657 5.17804Z" fill="#3E3D4D"/>
<path d="M114.788 4.8618C115.452 3.65728 117.091 3.72005 117.694 4.94071C117.908 5.36921 118.566 4.99441 118.356 4.56506C117.505 2.84618 115.047 2.82146 114.125 4.49171C113.892 4.91309 114.556 5.28318 114.788 4.8618Z" fill="#3E3D4D"/>
<path d="M114.631 11.415L115.543 11.2456" stroke="#FFB487" stroke-width="3" stroke-miterlimit="10" stroke-linecap="round"/>
<path d="M109.892 15.9193C111.311 15.5518 112.154 14.1421 111.773 12.7706C111.393 11.3992 109.934 10.5853 108.515 10.9528C107.096 11.3203 106.254 12.73 106.634 14.1014C107.014 15.4729 108.473 16.2868 109.892 15.9193Z" fill="#3E3D4D"/>
<path d="M120.982 13.5145C122.401 13.147 123.243 11.7373 122.863 10.3659C122.483 8.9944 121.024 8.18051 119.605 8.54799C118.186 8.91548 117.343 10.3252 117.724 11.6966C118.104 13.0681 119.563 13.882 120.982 13.5145Z" fill="#3E3D4D"/>
<path d="M117.56 18.4846C117.752 19.1746 117.328 19.8841 116.614 20.069C115.9 20.2539 115.169 19.8434 114.977 19.1534C114.918 18.9404 114.915 18.7264 114.962 18.5268C115.07 18.0763 115.424 17.6985 115.921 17.5698C116.5 17.4199 117.092 17.6618 117.398 18.1279C117.47 18.2353 117.525 18.3574 117.56 18.4846Z" fill="#3E3D4D" stroke="#3E3D4D" stroke-width="3" stroke-miterlimit="10" stroke-linecap="round"/>
<path d="M117.396 18.1243C117.197 18.4213 116.845 18.6658 116.407 18.7791C115.848 18.924 115.294 18.8084 114.961 18.5232C115.069 18.0727 115.422 17.6948 115.919 17.5662C116.498 17.4162 117.091 17.6581 117.396 18.1243V18.1243Z" fill="white"/>
<path d="M107.792 21.7263C112.058 20.6215 114.59 16.3834 113.447 12.2602C112.304 8.13707 107.918 5.69019 103.651 6.79499C99.3847 7.89979 96.8526 12.1379 97.9959 16.2611C99.1391 20.3843 103.525 22.8311 107.792 21.7263Z" stroke="#FFB487" stroke-width="3" stroke-miterlimit="10"/>
<path d="M125.694 17.3323C129.961 16.2275 132.493 11.9894 131.349 7.8662C130.206 3.74302 125.82 1.29615 121.554 2.40095C117.287 3.50575 114.755 7.74386 115.898 11.867C117.041 15.9902 121.427 18.4371 125.694 17.3323Z" stroke="#FFB487" stroke-width="3" stroke-miterlimit="10"/>
<path d="M10.126 62.6001C15.5616 62.5723 19.9045 50.1325 19.8261 34.8151C19.7477 19.4976 15.2777 7.10297 9.84209 7.13079C4.40645 7.1586 0.0635438 19.5984 0.141929 34.9158C0.220314 50.2332 4.69031 62.6279 10.126 62.6001Z" fill="#B5FF3F"/>
<path d="M55.9797 22.8351C56.1164 10.8682 43.8107 1.02522 28.4941 0.850177C13.1774 0.675135 0.650011 10.2343 0.513251 22.2012C0.376491 34.1681 12.6822 44.011 27.9988 44.1861C43.3154 44.3611 55.8429 34.802 55.9797 22.8351Z" fill="#B5FF3F"/>
<path d="M38.2944 23.4672C38.3831 15.7075 38.2944 16.2306 28.8827 9.59534C24.8003 14.2934 19.1441 15.7075 19.0555 23.4672C18.9668 31.227 20.261 30.8952 28.8828 30.9938C37.5047 31.0923 38.2057 31.227 38.2944 23.4672Z" fill="#F9FBF5"/>
<path d="M29.9867 10.8722C29.9392 10.9138 29.8977 10.9613 29.8562 11.0146C29.6604 11.2579 30.307 10.6705 29.8265 11.0443C29.6426 11.1867 29.4943 11.3528 29.3756 11.5545C29.3638 11.5782 29.2273 11.7977 29.2332 11.8096C29.2273 11.7859 29.4824 11.5071 29.2925 11.7028C29.3578 11.6376 29.8443 11.4596 29.5892 11.507C29.7672 11.4714 29.8977 11.4715 30.0697 11.5189C29.8977 11.4715 29.9392 11.4952 30.1943 11.5842C30.046 11.4892 30.0816 11.5189 30.3011 11.6732C30.046 11.4596 30.4553 11.9283 30.3486 11.7443C30.2358 11.5486 30.4613 12.1656 30.3782 11.8333C30.2892 11.4774 30.3782 12.2664 30.3842 11.9045C30.3842 11.7681 30.4316 11.6494 30.3486 12.0766C30.4019 11.8037 30.2062 12.3495 30.1468 12.4088C29.8977 12.6521 29.9273 12.5571 30.0519 12.4919L29.8384 12.5868C30.0223 12.5453 29.9748 12.5512 29.696 12.5986C30.0401 12.569 29.3637 12.4859 29.6663 12.5986L29.4527 12.5037C29.607 12.5986 29.5773 12.5749 29.3637 12.4207L29.2332 12.2368C29.3044 12.3673 29.3044 12.3614 29.2332 12.2249C29.2154 12.1359 29.1917 11.685 29.162 11.9817L29.1976 11.7384C29.1858 11.8096 29.162 11.8808 29.1383 11.9461C29.1205 11.9342 29.3281 11.5545 29.162 11.8274L29.2925 11.6494C29.162 11.774 29.1917 11.7503 29.3815 11.5782C29.6604 11.4062 29.6248 11.4893 29.4765 11.5189C29.7375 11.4833 29.779 11.4774 29.5892 11.4952C29.4053 11.4952 29.4409 11.4952 29.69 11.5248C29.2926 11.4477 30.135 11.7325 29.5595 11.4892C29.3104 11.3825 29.1739 11.3172 28.8773 11.3172L28.4738 11.3706C28.7408 11.3469 28.8002 11.335 28.6518 11.3409C28.5213 11.3409 28.462 11.3409 28.2959 11.3825C27.3763 11.6376 27.1924 12.8597 27.5721 13.5894C28.3493 15.0844 30.4731 15.1793 31.6241 14.1233C32.6148 13.2156 32.8936 11.6494 32.1995 10.4807C31.4224 9.1696 29.607 8.74245 28.2899 9.4603C26.9729 10.1781 26.5754 11.7978 27.2102 13.1326C27.845 14.4674 29.5892 15.1615 30.924 14.4081C31.5291 14.064 32.0275 13.447 32.2114 12.7707C32.4131 12.0113 32.0868 11.0502 31.3571 10.6705C30.8944 10.4273 30.3723 10.4926 29.9867 10.8485V10.8722Z" fill="#3E3D4D"/>
<path d="M14.2356 13.7321C14.3602 13.4651 14.3839 13.3999 14.3187 13.5304C14.2297 13.6728 14.2831 13.6075 14.4788 13.3346C14.3543 13.4592 14.4314 13.3999 14.7161 13.1626C14.5619 13.2456 14.4314 13.3524 14.3127 13.477C14.1941 13.6016 14.0873 13.738 13.9924 13.8863C13.8974 14.0465 13.9508 13.9753 14.1644 13.6787C14.467 13.471 14.5322 13.4177 14.3661 13.5185C14.7043 13.3939 14.7814 13.3524 14.5975 13.3999L15.1077 13.3287C15.0246 13.3346 14.9535 13.3405 14.8704 13.3287L15.3806 13.3999C15.3035 13.388 15.2264 13.3524 15.1492 13.3405C15.4696 13.4888 15.5645 13.5245 15.4281 13.4473C15.2976 13.3643 15.3747 13.4295 15.6594 13.6312C15.4399 13.4236 15.9027 14.0643 15.7662 13.7796C15.8196 13.8982 15.9205 14.2779 15.873 13.9457L15.9442 14.4677C15.9442 14.4143 15.9442 14.3609 15.9442 14.3075L15.873 14.8296C15.9086 14.616 16.0213 14.5626 15.7722 15.0076C15.9205 14.7406 15.434 15.3754 15.6594 15.1678L15.3806 15.3814C15.4281 15.3517 15.4696 15.322 15.523 15.2983C15.5111 15.3754 14.9594 15.4763 15.3509 15.4051L14.817 15.4763C14.9001 15.4703 14.9713 15.4644 15.0543 15.4763L14.5204 15.4051C14.5738 15.411 14.6272 15.4229 14.6746 15.4407C14.4432 15.3814 14.2415 15.2627 14.0695 15.0907C14.2059 15.239 14.1585 15.1678 13.9152 14.889C13.7847 14.533 13.7491 14.4499 13.7966 14.6457L13.7254 14.1058C13.7373 14.1592 13.7373 14.2186 13.7254 14.272L13.7966 13.7321C13.7907 13.7855 13.7788 13.8389 13.7551 13.8923L13.9627 13.4058C14.1051 13.1922 14.2831 13.0142 14.4966 12.8778L14.9831 12.6702C14.9416 12.688 14.9001 12.6998 14.8526 12.7057L15.3984 12.6345C15.3509 12.6405 15.3035 12.6405 15.262 12.6345L15.8077 12.7057C15.7603 12.7057 15.7188 12.6879 15.6713 12.6761L16.1637 12.8837C15.8967 12.7651 16.5731 13.2456 16.3773 13.0498C16.1222 12.8007 15.7722 12.593 15.4281 12.51C14.3009 12.2371 13.3398 12.8659 12.9542 13.916L12.9364 13.9575C12.6753 14.6694 13.0135 15.4288 13.4644 15.9568C14.2178 16.8408 15.6654 16.9476 16.6205 16.3662C17.813 15.6424 18.0859 14.094 17.457 12.9134C16.4247 10.9615 13.4644 11.0209 12.3906 12.9015C11.8744 13.8033 11.8507 14.8474 12.3728 15.7551C12.8592 16.6035 13.85 17.1552 14.817 17.173C15.784 17.1908 16.6917 16.7043 17.2138 15.856C17.7359 15.0076 17.4926 13.7143 16.6976 13.0676C16.2764 12.7295 15.8078 12.5337 15.256 12.688C14.7043 12.8422 14.4017 13.2219 14.2237 13.7202L14.2356 13.7321Z" fill="#3E3D4D"/>
<path d="M33.9667 3.08846C32.5725 0.116212 28.6155 -0.370264 26.5569 2.19856C26.0229 2.86302 26.9662 3.81223 27.5001 3.14185C29.0486 1.20781 31.7538 1.51039 32.8158 3.76478C33.1777 4.54196 34.3286 3.86563 33.9667 3.08846V3.08846Z" fill="#3E3D4D"/>
<path d="M17.1715 3.46274C14.3357 1.12528 10.2244 2.86947 10.0227 6.57143C9.97526 7.43166 11.3101 7.42572 11.3576 6.57143C11.494 4.07972 14.2824 2.80421 16.2283 4.40602C16.8868 4.94589 17.836 4.00854 17.1715 3.46274V3.46274Z" fill="#3E3D4D"/>
<path d="M24.5812 20.9671C25.2431 20.9671 25.7796 20.4306 25.7796 19.7687C25.7796 19.1069 25.2431 18.5703 24.5812 18.5703C23.9194 18.5703 23.3828 19.1069 23.3828 19.7687C23.3828 20.4306 23.9194 20.9671 24.5812 20.9671Z" stroke="#3E3D4D" stroke-miterlimit="10" stroke-linecap="round"/>
<path d="M80.2 37.68C80.4667 37.6533 80.8933 37.6133 81.48 37.56C82.0933 37.48 82.6667 37.4533 83.2 37.48C83.3867 37.5067 83.6267 37.5867 83.92 37.72C84.2133 37.8533 84.48 38.0133 84.72 38.2C84.9867 38.3867 85.2133 38.5867 85.4 38.8C85.6133 39.0133 85.7333 39.2133 85.76 39.4C85.76 39.5333 85.72 39.6933 85.64 39.88C85.5867 40.04 85.5067 40.2133 85.4 40.4C85.32 40.56 85.2267 40.72 85.12 40.88C85.0133 41.04 84.9333 41.16 84.88 41.24C84.8 41.3467 84.7067 41.44 84.6 41.52C84.4933 41.6 84.28 41.6533 83.96 41.68C83.7733 41.68 83.4933 41.68 83.12 41.68C82.7467 41.68 82.36 41.6533 81.96 41.6C81.56 41.5467 81.1867 41.4667 80.84 41.36C80.4933 41.2533 80.2533 41.12 80.12 40.96V41.88C80.12 42.8133 80.0667 43.8133 79.96 44.88C79.88 45.92 79.72 46.9467 79.48 47.96C79.2667 48.9733 78.9867 49.9333 78.64 50.84C78.32 51.7467 77.92 52.5067 77.44 53.12C77.2267 53.4133 77.04 53.5733 76.88 53.6C76.7467 53.6533 76.6133 53.64 76.48 53.56C76.4 53.5067 76.2667 53.36 76.08 53.12C75.8933 52.9067 75.76 52.6533 75.68 52.36C75.6533 52.2267 75.6667 52.0267 75.72 51.76C75.7733 51.4933 75.84 51.2667 75.92 51.08C76 50.4933 76.0667 49.7467 76.12 48.84C76.1733 47.9067 76.2133 46.9467 76.24 45.96C76.2933 44.9467 76.32 43.96 76.32 43C76.3467 42.04 76.36 41.2 76.36 40.48V25.64C76.36 25.2933 76.2533 25.0533 76.04 24.92C75.5067 24.6 75.0133 24.2533 74.56 23.88C74.1067 23.5067 73.7067 23.0533 73.36 22.52C73.3067 22.44 73.2267 22.2 73.12 21.8C73.0133 21.3733 72.9867 21.0267 73.04 20.76C73.0667 20.5733 73.1333 20.4533 73.24 20.4C73.3733 20.3467 73.4933 20.3333 73.6 20.36C74.5867 20.5733 75.6133 20.9333 76.68 21.44C77.7733 21.92 78.6667 22.44 79.36 23C79.76 23.32 80 23.64 80.08 23.96C80.16 24.28 80.2 24.6667 80.2 25.12V37.68ZM68.04 37.96C67.08 38.28 66.0933 38.3867 65.08 38.28C64.0933 38.1733 63.2 37.88 62.4 37.4C61.6 36.92 60.9467 36.2667 60.44 35.44C59.9333 34.5867 59.7067 33.6 59.76 32.48C59.76 31.6267 59.9467 30.8533 60.32 30.16C60.72 29.44 61.24 28.8267 61.88 28.32C62.5467 27.7867 63.3067 27.3733 64.16 27.08C65.04 26.7867 65.96 26.64 66.92 26.64C67.72 26.64 68.4667 26.8133 69.16 27.16C69.88 27.48 70.48 27.92 70.96 28.48C71.4667 29.04 71.8267 29.6933 72.04 30.44C72.28 31.1867 72.3467 31.9733 72.24 32.8C72.08 33.92 71.6133 34.96 70.84 35.92C70.0933 36.88 69.16 37.56 68.04 37.96ZM68.48 40.36C68.6667 40.5467 68.7867 40.72 68.84 40.88C68.8933 41.04 68.92 41.28 68.92 41.6C68.8667 42.0533 68.8 42.5333 68.72 43.04C68.64 43.52 68.5467 44 68.44 44.48C70.4133 44.48 72.0133 44.5867 73.24 44.8C73.32 44.8267 73.44 44.9067 73.6 45.04C73.7867 45.1733 73.9733 45.3467 74.16 45.56C74.3467 45.7467 74.5067 45.9467 74.64 46.16C74.8 46.3733 74.9067 46.56 74.96 46.72C74.9867 46.8267 74.9333 46.9867 74.8 47.2C74.6933 47.3867 74.5733 47.5333 74.44 47.64C74.3333 47.72 74.1067 47.84 73.76 48C73.4133 48.16 73.12 48.1867 72.88 48.08C72.1067 47.7867 71.12 47.5733 69.92 47.44C68.7467 47.28 67.4933 47.1867 66.16 47.16C64.8 47.1333 63.4 47.2 61.96 47.36C60.52 47.4933 59.1867 47.68 57.96 47.92C57.7467 47.9733 57.5333 47.9467 57.32 47.84C57.1067 47.7333 56.9867 47.6533 56.96 47.6C56.9333 47.5733 56.92 47.4933 56.92 47.36C56.92 47.2 56.9333 47.04 56.96 46.88C56.9867 46.72 57.0133 46.5733 57.04 46.44C57.0933 46.3067 57.1467 46.2133 57.2 46.16C57.4667 45.9467 57.84 45.7467 58.32 45.56C58.8 45.3467 59.2267 45.2 59.6 45.12C60.4267 44.96 61.3467 44.84 62.36 44.76C63.3733 44.6533 64.4267 44.5733 65.52 44.52C65.4933 44.04 65.4667 43.5467 65.44 43.04C65.4133 42.5333 65.4 42.2133 65.4 42.08C65.4 42.0267 65.3867 41.9733 65.36 41.92C65.36 41.8667 65.3333 41.8133 65.28 41.76C64.9333 41.4667 64.5867 41.1333 64.24 40.76C63.92 40.36 63.6267 39.9333 63.36 39.48C63.3067 39.4267 63.36 39.3067 63.52 39.12C63.7067 38.9333 63.8267 38.84 63.88 38.84C64.12 38.84 64.4533 38.8933 64.88 39C65.3333 39.08 65.7867 39.2 66.24 39.36C66.72 39.52 67.16 39.6933 67.56 39.88C67.9867 40.04 68.2933 40.2 68.48 40.36ZM62.72 32.28C62.72 32.68 62.8133 33.08 63 33.48C63.2133 33.8533 63.48 34.1867 63.8 34.48C64.12 34.7733 64.48 35.0133 64.88 35.2C65.3067 35.36 65.7333 35.4267 66.16 35.4C66.7733 35.3467 67.36 35.1333 67.92 34.76C68.5067 34.3867 68.9467 33.88 69.24 33.24C69.64 32.44 69.6533 31.6667 69.28 30.92C68.9067 30.1467 68.2933 29.6267 67.44 29.36C66.9867 29.2267 66.48 29.2 65.92 29.28C65.3867 29.36 64.88 29.5333 64.4 29.8C63.92 30.0667 63.52 30.4133 63.2 30.84C62.88 31.2667 62.72 31.7467 62.72 32.28Z" fill="white"/>
</svg>
