<svg width="465" height="483" viewBox="0 0 465 483" fill="none" xmlns="http://www.w3.org/2000/svg">
<path d="M251.827 460.89C257.587 442.084 259.945 422.176 258.658 402.255C258.275 396.245 252.668 391.667 246.144 392.019C239.046 392.348 233.808 398.616 235.236 405.025C238.944 422.234 239.555 440.218 236.867 458.014C235.771 466.7 249.075 469.236 251.827 460.901V460.89Z" fill="#59CDFF"/>
<path d="M203.673 458.265C197.777 441.351 195.274 423.415 196.417 405.439C196.755 400.016 202.329 395.842 208.856 396.107C215.956 396.346 221.239 401.957 219.858 407.749C216.275 423.299 215.794 439.523 218.612 455.551C219.772 463.376 206.486 465.77 203.673 458.276L203.673 458.265Z" fill="#59CDFF"/>
<path d="M171.942 286.281C192.783 313.487 174.5 308.5 199.551 328.704C212.626 339.249 259.551 346.704 213.734 369.555C199.106 392.113 170.832 412.644 148.5 408C114.982 394.01 108.636 369.631 101.641 333.234C99.6555 322.905 110.851 294.026 122.912 282.947C136.827 274.769 163.665 278.067 171.942 286.281Z" fill="#59CDFF"/>
<path d="M223.496 323C276.655 274.123 234.006 193.823 259.005 123.012C267.6 98.6996 317.909 102.925 347.505 123.012C373.505 171.765 398.922 291.012 337.264 365.512C278.424 424.512 199.228 418.753 140.496 405.5C120.728 391.253 126.501 352.734 141 336C166.731 321.5 213.055 332.358 223.496 323Z" fill="#59CDFF"/>
<path d="M238.46 7.60866C55.7523 2.43446 4.02856 39.0988 2.61818 88.9013C1.2078 138.704 50.6448 182.785 233.353 187.959C416.061 193.134 460.202 160.336 461.612 110.533C463.022 60.731 421.169 12.7829 238.46 7.60866Z" fill="#59CDFF"/>
<path opacity="0.45" d="M202.698 161.796C234.634 153.527 253.607 121.88 245.075 91.1105C236.544 60.341 203.738 42.1011 171.802 50.3704C139.866 58.6397 120.893 90.2868 129.425 121.056C137.956 151.826 170.762 170.066 202.698 161.796Z" fill="#B5FFDD"/>
<path opacity="0.45" d="M342.721 126.399C374.658 118.13 393.631 86.4825 385.099 55.713C376.567 24.9436 343.761 6.7036 311.825 14.9729C279.889 23.2422 260.916 54.8894 269.448 85.6588C277.98 116.428 310.785 134.668 342.721 126.399Z" fill="#B5FFDD"/>
<path d="M192.313 38.759C192.803 28.9136 203.079 23.4215 212.007 28.201C215.228 29.9177 218.126 25.1372 214.873 23.4031C202.114 16.606 187.257 24.7127 186.58 38.7386C186.407 42.3034 192.14 42.3238 192.32 38.7828L192.313 38.759Z" fill="#3E3D4D"/>
<path d="M253.184 36.3891C258.154 27.3734 270.427 27.8433 274.94 36.9797C276.542 40.187 281.465 37.3816 279.888 34.168C273.523 21.3024 255.126 21.1174 248.219 33.619C246.481 36.773 251.446 39.5431 253.184 36.3891Z" fill="#3E3D4D"/>
<path d="M252 85.4365L258.824 84.1681" stroke="#FFB487" stroke-width="21.3368" stroke-miterlimit="10" stroke-linecap="round"/>
<path d="M216.542 119.154C227.164 116.404 233.468 105.852 230.622 95.5871C227.776 85.3219 216.857 79.23 206.234 81.9806C195.611 84.7312 189.307 95.2826 192.154 105.548C195 115.813 205.919 121.905 216.542 119.154Z" fill="#3E3D4D"/>
<path d="M299.542 101.154C310.164 98.4038 316.468 87.8524 313.622 77.5871C310.776 67.3219 299.857 61.23 289.234 63.9806C278.611 66.7312 272.307 77.2826 275.154 87.5478C278 97.8131 288.919 103.905 299.542 101.154Z" fill="#3E3D4D"/>
<path d="M200.814 162.616C232.75 154.347 251.702 122.625 243.145 91.7634C234.588 60.902 201.761 42.5874 169.825 50.8567C137.889 59.126 118.937 90.8478 127.494 121.709C136.052 152.571 168.878 170.885 200.814 162.616Z" stroke="#FFB487" stroke-width="12.8021" stroke-miterlimit="10"/>
<path d="M334.814 129.732C366.75 121.463 385.702 89.7411 377.145 58.8796C368.588 28.0182 335.761 9.7036 303.825 17.9729C271.889 26.2422 252.937 57.964 261.494 88.8254C270.052 119.687 302.878 138.001 334.814 129.732Z" stroke="#FFB487" stroke-width="12.8021" stroke-miterlimit="10"/>
</svg>
