<svg width="141" height="151" viewBox="0 0 141 151" fill="none" xmlns="http://www.w3.org/2000/svg">
<path d="M18.8589 150.912C28.9823 150.864 37.0707 129.286 36.9247 102.716C36.7787 76.1458 28.4537 54.6456 18.3302 54.6939C8.2067 54.7421 0.118346 76.3205 0.264333 102.891C0.41032 129.461 8.73537 150.961 18.8589 150.912Z" fill="#B5FF3F"/>
<path d="M104.26 81.9366C104.515 61.1786 81.5967 44.1047 53.0705 43.801C24.5444 43.4974 1.21296 60.079 0.958256 80.8371C0.70355 101.595 23.622 118.669 52.1482 118.973C80.6743 119.276 104.006 102.695 104.26 81.9366Z" fill="#B5FF3F"/>
<path d="M71.322 83.0322C71.4872 69.572 71.322 70.4795 53.7935 58.9697C46.1902 67.1191 35.656 69.5719 35.4908 83.0322C35.3257 96.4925 37.7361 95.917 53.7937 96.088C69.8513 96.2589 71.1569 96.4925 71.322 83.0322Z" fill="#F9FBF5"/>
<path d="M133.01 24.1383C132.425 27.0141 129.543 26.772 126.423 32.1804C124.299 35.8634 124.451 38.0127 121.959 39.3951C120.204 40.3637 117.658 40.6766 115.708 39.7584C113.303 38.6282 113.346 36.3983 111.31 32.7052C108.168 26.994 104.993 27.2159 104.376 24.1383C103.39 19.2243 109.923 10.7988 118.698 10.7988C127.474 10.7988 134.006 19.2344 133.021 24.1383H133.01Z" fill="#FFB487"/>
<path d="M116.358 38.5376C117.268 35.4398 117.182 32.0999 116.12 29.0526C115.838 28.2655 115.286 27.3473 114.397 27.3776C113.541 27.4078 113.021 28.3362 113.097 29.1333C113.227 30.5762 114.809 31.7165 116.369 31.6055C117.929 31.4945 119.24 30.2331 119.489 28.8003C119.565 28.3361 119.543 27.8417 119.294 27.4381C119.045 27.0345 118.536 26.7419 118.048 26.8226C117.192 26.9639 116.932 28.0637 117.247 28.8205C117.799 30.1423 119.522 30.889 120.984 30.5157C122.447 30.1423 123.508 28.7499 123.498 27.3372C123.498 26.7621 123.129 26.0457 122.523 26.1264C122.013 26.1869 121.786 26.752 121.678 27.2162C120.919 30.5561 120.833 34.0171 121.418 37.3873" stroke="#3E3D4D" stroke-width="3.0857" stroke-miterlimit="10" stroke-linecap="round"/>
<path d="M123.204 41.8068C124.331 42.9873 122.164 48.2546 119.152 48.3353C116.119 48.416 113.659 43.2195 114.721 41.9783C115.144 41.4839 115.913 41.8875 119.152 41.8068C122.121 41.7361 122.781 41.3628 123.204 41.8068Z" fill="#3E3D4D"/>
<path d="M103.01 12.0393L98.0376 7.14551" stroke="#3E3D4D" stroke-width="3.0857" stroke-miterlimit="10" stroke-linecap="round"/>
<path d="M119.878 6.12701V2" stroke="#3E3D4D" stroke-width="3.0857" stroke-miterlimit="10" stroke-linecap="round"/>
<path d="M135.393 14.6636L139 12.6152" stroke="#3E3D4D" stroke-width="3.0857" stroke-miterlimit="10" stroke-linecap="round"/>
<path d="M98.07 92.6201C104.18 91.8633 111.331 91.4799 115.036 86.7878C115.783 85.7485 115.881 84.8807 115.686 84.4267C113.27 79.0787 115.968 72.9236 121.709 70.6734C130.344 67.2023 139.607 74.9618 136.909 83.2662L135.252 88.5839C133.952 92.8219 131.102 96.515 127.603 99.1688C119.293 105.677 107.994 105.849 98.1458 104.708C90.3779 103.831 90.3888 93.5282 98.07 92.5999V92.6201Z" fill="#B5FF3F"/>
<path d="M121.895 87.2058C124.052 86.6516 124.297 81.1244 122.442 74.8604C120.587 68.5964 117.335 63.9678 115.177 64.522C113.02 65.0761 112.775 70.6033 114.63 76.8673C116.485 83.1312 119.738 87.76 121.895 87.2058Z" fill="#B5FF3F"/>
<path d="M114.375 76.2937L113.053 67.9187C112.901 66.9601 112.75 65.9813 113.031 65.0429C113.313 64.1045 114.126 63.2468 115.155 63.1863C116.726 63.0955 117.69 64.7099 118.275 66.062L121.243 73.0446" stroke="#3E3D4D" stroke-width="8.22852" stroke-miterlimit="10" stroke-linecap="round"/>
<path d="M121.579 73.6499C121.969 71.8639 124.136 70.6127 126.021 71.0768C127.906 71.541 129.119 73.6297 128.513 75.3552" stroke="#3E3D4D" stroke-width="8.22852" stroke-miterlimit="10" stroke-linecap="round"/>
<path d="M128.09 71.9042C130.095 71.4501 132.359 72.1363 133.691 73.6095C135.024 75.0827 135.371 77.2722 134.547 79.038" stroke="#3E3D4D" stroke-width="8.22852" stroke-miterlimit="10" stroke-linecap="round"/>
<path d="M47.3568 80.8966C45.3308 83.5302 48.0827 86.7289 51.1703 86.85C54.4855 86.971 56.8473 83.7522 56.2189 80.8865C55.5147 77.708 51.5062 76.5072 48.6243 77.9199C45.4934 79.4536 45.2009 83.3587 47.5193 85.6391C48.9927 87.082 51.322 87.4857 53.2287 86.6078C55.1355 85.7299 56.3272 83.6815 55.168 81.8451C54.6371 80.9975 53.7054 80.7957 52.7412 80.9269C52.8279 80.9168 53.2721 80.8563 52.947 80.8663C52.4162 80.8865 51.9395 81.0277 51.4628 81.2598C51.3978 81.2901 50.9753 81.5323 51.3003 81.3709C51.6687 81.1791 50.8995 81.4213 51.3978 81.3507C51.9178 81.28 51.0945 81.3506 51.1161 81.3305C51.2136 81.2195 51.7662 81.4616 51.8637 81.5121C51.5061 81.3607 51.8637 81.4919 52.0045 81.613C52.1562 81.7543 52.2429 82.0671 52.1129 81.7341L52.2537 82.0771C52.1779 81.8249 52.167 81.835 52.2104 82.0872C52.232 82.3193 52.232 82.3496 52.2212 82.1882C52.2212 82.0267 52.2104 82.057 52.1887 82.2891C52.1454 82.5211 52.1454 82.5514 52.1887 82.3899C52.2429 82.2386 52.2212 82.2689 52.1454 82.4707C51.9828 82.7129 51.8745 82.8642 51.6578 83.0661C51.4303 83.2073 51.4303 83.2174 51.6578 83.0761L51.2678 83.2174C51.2678 83.2174 51.647 83.1266 51.647 83.1165C51.6145 83.177 50.8995 83.1871 51.3978 83.1871L50.9428 83.1367C51.2028 83.2174 51.192 83.2073 50.932 83.1165C50.6503 82.9651 50.4986 82.844 50.2603 82.6422C50.1194 82.4505 50.0869 82.4102 50.1736 82.5413C50.2603 82.6826 50.2386 82.6321 50.1194 82.4101C50.0869 82.279 49.9894 81.6836 49.9786 81.8249C49.9786 81.9056 49.9461 82.1781 49.9786 82.2487C49.9244 82.1579 50.1303 81.5625 49.9786 81.9662C50.0219 81.835 50.3036 81.4314 50.0761 81.7442C49.8486 82.057 50.1627 81.6533 50.2386 81.5726C49.9677 81.8753 50.5203 81.4314 50.6394 81.3709C50.8669 81.2901 50.9103 81.28 50.7478 81.3204C50.5853 81.3607 50.6286 81.3507 50.8778 81.3103C51.0186 81.27 51.1595 81.27 51.3112 81.3103C51.5495 81.3507 51.5928 81.3507 51.4412 81.3103C51.0945 81.2296 52.0262 81.5827 51.582 81.3406C51.7012 81.4112 52.0262 81.6837 51.7662 81.4213C51.8637 81.5121 52.1128 81.835 51.8962 81.5424C51.6145 81.1589 51.2895 80.8461 50.8778 80.5939C50.3361 80.2609 51.0945 80.9471 50.7153 80.4829C49.7944 79.383 48.0718 79.9783 47.3676 80.8865L47.3568 80.8966Z" fill="#3E3D4D"/>
<path d="M30.5315 60.0904C31.8533 56.2358 36.7069 55.1158 39.8379 57.9209C40.9646 58.93 42.698 57.3357 41.5604 56.3166C37.0969 52.3107 30.0657 53.9958 28.1806 59.485C27.7039 60.8775 30.0549 61.4728 30.5315 60.0904Z" fill="#3E3D4D"/>
<path d="M66.3704 54.3287C67.6922 50.4741 72.5457 49.3541 75.6767 52.1593C76.8034 53.1683 78.5369 51.574 77.3993 50.5549C72.9358 46.549 65.9046 48.2341 64.0195 53.7233C63.5428 55.1157 65.8938 55.7111 66.3704 54.3287Z" fill="#3E3D4D"/>
<path d="M70.5838 79.757C70.1396 81.2302 71.0714 82.8346 72.4473 83.5813C73.704 84.2674 75.3941 84.2271 76.5966 83.4501C77.7992 82.6731 78.7526 81.3513 78.6226 79.9185C78.4709 78.2334 77.3658 76.8005 75.5783 76.3363C74.1157 75.9529 72.3931 76.296 71.2989 77.3151C70.2046 78.3342 69.7713 79.8579 70.183 81.2907C70.5947 82.7236 71.8081 83.7831 73.2923 84.1261C75.2749 84.5903 77.2142 83.4602 77.8534 81.7145C78.1676 80.8568 77.81 79.8276 77.1383 79.2121C76.38 78.5058 75.4591 78.4048 74.4515 78.5461C74.3432 78.5663 74.2349 78.5865 74.1265 78.6168L74.8957 78.5159C74.7874 78.526 74.6791 78.5361 74.5707 78.5159L75.3724 78.6168C75.1557 78.5865 74.9282 78.5562 74.7224 78.4856L75.4591 78.7782C75.3941 78.748 75.3291 78.7177 75.2641 78.6773L75.8924 79.1314C75.8058 79.0607 75.7299 79.0002 75.6541 78.9195L76.1416 79.5047C76.0766 79.4139 76.0224 79.3332 75.9683 79.2424L76.2825 79.9386C76.2283 79.8074 76.185 79.6763 76.1633 79.5451L76.2716 80.322C76.2716 80.211 76.2716 80.1202 76.2716 80.0193L76.1633 80.7963C76.1741 80.7257 76.1958 80.6651 76.2174 80.5945L75.9033 81.2907C75.9466 81.1898 76.0008 81.1091 76.0658 81.0284L75.5783 81.6237C75.6216 81.5733 75.6758 81.5228 75.7408 81.4825L75.1016 81.9365C75.1991 81.876 75.2857 81.8255 75.3833 81.7852L74.6249 82.0778C74.7332 82.0374 74.8307 82.0173 74.9499 81.9971L74.1048 82.098C74.224 82.098 74.3215 82.0879 74.4407 82.098L73.5956 81.9971C73.704 82.0173 73.8123 82.0374 73.9207 82.0677L73.1623 81.765C73.2706 81.8053 73.3573 81.8558 73.444 81.9163L72.8048 81.4522C72.859 81.4925 72.9131 81.543 72.9564 81.6035L72.4581 80.9981C72.4581 80.9981 72.5339 81.099 72.5664 81.1596L72.2414 80.4532C72.2847 80.544 72.3064 80.6248 72.3281 80.7156L72.2089 79.9285C72.2197 80.0799 72.2197 80.2413 72.2089 80.3927L72.3173 79.6057C72.2956 79.7066 72.2739 79.7872 72.2414 79.8781L72.5556 79.1818C72.5014 79.3029 72.4364 79.4038 72.3498 79.5148L72.8373 78.9296C72.7723 79.0002 72.7073 79.0607 72.6206 79.1213L73.2381 78.6773C73.1515 78.7277 73.0756 78.7681 72.9781 78.8085L73.704 78.526C73.639 78.5462 73.574 78.5663 73.509 78.5663L74.3107 78.4654C74.2457 78.4654 74.1807 78.4755 74.1048 78.4654L74.8957 78.5663C74.7982 78.5562 74.7115 78.536 74.614 78.5058L75.3183 78.7782C75.2316 78.7379 75.1557 78.6975 75.0691 78.6471L75.6541 79.0708C75.5783 79.0103 75.5133 78.9497 75.4483 78.8791L75.9033 79.424C75.6866 79.1515 75.5132 78.8186 75.2316 78.5966C74.4299 78.0013 73.5523 77.6582 72.5123 77.9306C71.5697 78.1728 70.8222 78.869 70.5622 79.7469L70.5838 79.757Z" fill="#3E3D4D"/>
<path d="M72.5131 99.6256C71.1046 101.149 69.0462 102.421 66.4894 102.703C62.6109 103.137 59.2633 101.109 57.6382 98.9798C59.4149 97.9102 62.9034 97.214 65.9477 97.4764C68.2987 97.6782 71.148 98.5359 72.5131 99.6256Z" fill="white"/>
<path d="M70.9522 103.78C69.5438 105.304 67.4854 106.575 64.9286 106.858C61.05 107.292 57.7024 105.264 56.0773 103.134C55.2323 102.055 54.8423 100.945 55.0589 100.127C56.0448 96.3632 70.1366 92.5183 72 96C72.6609 97.2312 72.7398 101.853 70.9522 103.78Z" fill="white" stroke="#3E3D4D" stroke-width="3" stroke-miterlimit="10" stroke-linecap="round"/>
</svg>
