<svg width="712" height="649" viewBox="0 0 712 649" fill="none" xmlns="http://www.w3.org/2000/svg">
<rect width="712" height="649" fill="white"/>
<path d="M196.792 559.558C237.477 559.35 269.983 466.24 269.396 351.591C268.809 236.941 235.352 144.169 194.667 144.377C153.982 144.585 121.476 237.695 122.062 352.344C122.649 466.994 156.106 559.766 196.792 559.558Z" fill="#B5FF3F"/>
<path d="M540.013 261.927C541.037 172.356 448.93 98.6826 334.287 97.3724C219.643 96.0623 125.877 167.612 124.853 257.182C123.83 346.753 215.937 420.426 330.58 421.737C445.223 423.047 538.989 351.498 540.013 261.927Z" fill="#B5FF3F"/>
<path d="M407.636 266.656C408.299 208.576 407.636 212.491 337.19 162.827C306.634 197.991 264.298 208.575 263.634 266.656C262.971 324.737 272.658 322.254 337.191 322.992C401.725 323.729 406.972 324.737 407.636 266.656Z" fill="#F9FBF5"/>
<path d="M368.702 347.445C366.02 357.453 371.963 367.746 381.971 370.428C391.98 373.109 402.226 367.155 404.908 357.146C405.736 354.056 405.776 350.952 405.119 348.057C403.607 341.523 398.649 336.042 391.685 334.176C383.567 332 375.262 335.509 370.978 342.271C369.967 343.829 369.196 345.6 368.702 347.445Z" fill="#3E3D4D" stroke="#3E3D4D" stroke-width="8.53473" stroke-miterlimit="10" stroke-linecap="round"/>
<path d="M499.901 442.265C440.091 426.239 404.598 364.763 420.624 304.953C436.65 245.144 498.126 209.65 557.936 225.676C617.745 241.702 653.239 303.179 637.213 362.988C621.187 422.798 559.71 458.291 499.901 442.265Z" stroke="#FFB487" stroke-width="12.8021" stroke-miterlimit="10"/>
<path d="M360.897 265.232C367.554 266.769 370.824 274.121 370.974 280.389C371.204 288.756 365.047 295.312 357.41 297.616C345.524 301.204 332.336 292.677 329.653 280.737C328.016 273.377 329.969 266.09 335.066 260.535C339.208 255.96 345.317 253.642 351.346 253.28C357.375 252.919 363.634 255.387 368.221 259.483C374.074 264.759 375.953 272.875 374.634 280.381C373.008 289.585 364.702 295.862 355.717 296.371C346.732 296.88 338.451 289.965 335.708 281.568C333.912 276.094 335.926 269.318 340.034 265.426L340.234 265.232C345.33 260.418 353.695 258.903 359.827 262.77C363.757 265.257 366.512 268.813 367.78 273.305L366.155 269.409C366.265 269.735 366.446 269.982 366.674 270.24L364.112 266.885C364.34 267.143 364.567 267.402 364.865 267.581L361.469 264.941C361.755 265.165 362.066 265.298 362.422 265.443L358.327 263.753C358.65 263.839 359.019 263.938 359.342 264.025L354.951 263.441C355.286 263.481 355.633 263.476 355.993 263.424L351.779 264.025L352.268 263.859L348.372 265.485L348.84 265.215L345.484 267.776C345.847 267.527 346.165 267.266 346.414 266.888L343.787 270.237C344.024 269.906 344.273 269.528 344.385 269.112L342.707 273.161C342.818 272.746 342.929 272.331 343.04 271.916L342.469 276.261C342.534 275.834 342.507 275.382 342.48 274.93L343.035 279.132C342.931 278.412 342.732 277.864 342.511 277.212L344.103 281.049C343.912 280.652 343.676 280.243 343.415 279.926L345.943 283.223C345.681 282.906 345.408 282.635 345.135 282.364L348.45 284.933C347.959 284.554 347.534 284.292 346.972 283.993L350.975 285.659C350.215 285.357 349.523 285.171 348.715 285.053L353.014 285.612C352.193 285.54 351.452 285.539 350.627 285.665L354.783 285.098C354.202 285.238 353.633 285.333 353.085 285.532L356.876 283.928C356.153 284.229 355.51 284.6 354.842 285.064L358.08 282.57C357.763 282.831 357.505 283.058 357.267 283.39L359.824 280.121C359.445 280.612 359.183 281.037 358.884 281.599L360.525 277.689C360.319 278.276 360.17 278.829 360.056 279.441L360.59 275.234C360.537 275.616 360.577 276.022 360.616 276.428L360.07 272.376C360.11 272.782 360.195 273.201 360.293 273.573C359.042 270.865 358.775 270.2 359.447 271.567C360.629 273.613 356.338 268.41 359.033 270.714L355.843 268.228C356.335 268.607 356.851 268.894 357.367 269.18L353.549 267.564C354.124 267.817 354.631 267.953 355.256 268.021L351.141 267.512C351.765 267.58 352.322 267.532 352.937 267.449L348.99 267.974C350.793 267.518 346.926 268.854 346.901 268.946C346.938 268.808 347.803 268.348 348.024 268.259C349.194 267.583 350.779 267.019 352.025 266.612C353.434 266.149 352.705 266.102 350.144 267.541C352.354 266.305 348.171 269.188 349.31 268.257C352.694 265.407 356.537 264.163 360.863 265.174L360.897 265.232Z" fill="#3E3D4D"/>
<path d="M515.822 202.231C514.904 183.151 495.659 172.507 478.94 181.77C472.907 185.097 467.481 175.832 473.572 172.472C497.468 159.299 525.291 175.01 526.56 202.192C526.883 209.1 516.146 209.14 515.81 202.277L515.822 202.231Z" fill="#3E3D4D"/>
<path d="M401.823 197.638C392.515 180.165 369.532 181.076 361.08 198.782C358.08 204.998 348.859 199.561 351.813 193.333C363.734 168.4 398.186 168.041 411.122 192.269C414.378 198.382 405.079 203.75 401.823 197.638Z" fill="#3E3D4D"/>
<path d="M434.439 407.622L269.199 540.762" stroke="#FFB487" stroke-width="21.3368" stroke-miterlimit="10" stroke-linecap="round"/>
<path d="M370.99 342.225C373.79 346.534 378.722 350.081 384.857 351.724C392.697 353.825 400.463 352.149 405.131 348.011C403.619 341.477 398.661 335.996 391.697 334.13C383.579 331.955 375.274 335.463 370.99 342.225Z" fill="white"/>
<path d="M142.378 338.657C146.17 410.66 187.016 483.297 256.27 511.345C280.434 521.528 306.462 526.228 332.234 526.163C356.73 526.251 376.706 506.491 376.84 482.008C376.927 457.513 357.168 437.536 332.685 437.403C309.149 440.192 284.897 439.378 263.885 427.767C228.356 410.189 206.683 369.68 199.125 331.469C191.462 296.79 141.106 303.367 142.424 338.669L142.378 338.657Z" fill="#B5FF3F"/>
<path d="M489.325 342.695C509.219 337.364 521.025 316.915 515.695 297.021C510.364 277.127 489.915 265.321 470.021 270.652C450.127 275.982 438.321 296.431 443.652 316.325C448.982 336.219 469.431 348.025 489.325 342.695Z" fill="#3E3D4D"/>
<path opacity="0.45" d="M496.371 440.677C436.561 424.651 401.029 363.319 417.007 303.688C432.985 244.057 494.423 208.708 554.233 224.733C614.042 240.759 649.575 302.092 633.596 361.723C617.618 421.354 556.18 456.703 496.371 440.677Z" fill="#B5FFDD"/>
</svg>
