<svg width="566" height="465" viewBox="0 0 566 465" fill="none" xmlns="http://www.w3.org/2000/svg">
<path d="M220.792 464.558C261.477 464.35 293.983 371.24 293.396 256.591C292.809 141.941 259.352 49.1687 218.667 49.3769C177.982 49.5851 145.476 142.695 146.062 257.344C146.649 371.994 180.106 464.766 220.792 464.558Z" fill="#B5FF3F"/>
<path d="M564.013 166.927C565.037 77.3563 472.93 3.68261 358.287 2.37244C243.643 1.06227 149.877 72.6118 148.853 162.182C147.83 251.753 239.937 325.426 354.58 326.737C469.223 328.047 562.989 256.498 564.013 166.927Z" fill="#B5FF3F"/>
<path d="M431.636 171.656C432.299 113.576 431.636 117.491 361.19 67.8269C330.634 102.991 288.298 113.575 287.634 171.656C286.971 229.737 296.658 227.254 361.191 227.992C425.725 228.729 430.972 229.737 431.636 171.656Z" fill="#F9FBF5"/>
<path d="M252.813 227.964C214.426 273.447 160.505 314.418 95.4738 300.096C76.6753 297.054 54.5593 281.893 38.183 271.926C12.381 256.188 4.27175 222.561 20.0689 196.856C43.6593 157.774 103.794 164.436 118.432 207.138C119.275 209.499 122.698 212.541 129.016 214.063C158.82 219.991 185.834 198.167 210.477 181.171C241.703 159.557 277.457 199.584 252.761 227.964H252.813Z" fill="#B5FF3F"/>
<path d="M91 134L81 194" stroke="#B5FF3F" stroke-width="40.2874" stroke-miterlimit="10" stroke-linecap="round"/>
<path d="M21 147L49 201" stroke="#B5FF3F" stroke-width="40.2874" stroke-miterlimit="10" stroke-linecap="round"/>
<path d="M63 202C54.7292 204.789 48.5 213 48.0289 221.737C47.5577 230.474 52.8971 239.316 60.8015 243" stroke="#3E3D4D" stroke-width="8.95275" stroke-miterlimit="10" stroke-linecap="round"/>
<path d="M62 243C59.6855 247.316 57.3145 251.632 55 256" stroke="#3E3D4D" stroke-width="8.95275" stroke-miterlimit="10" stroke-linecap="round"/>
<path d="M19.1085 211C15.8395 219.191 20.1102 228.257 27.8608 231.091C34.8206 233.667 43.1511 230.627 47 223.776" stroke="#3E3D4D" stroke-width="8.95275" stroke-miterlimit="10" stroke-linecap="round"/>
<path d="M272.868 162.92C264.498 174.603 275.868 188.793 288.625 189.33C302.323 189.868 312.082 175.588 309.485 162.875C306.576 148.774 290.013 143.448 278.106 149.714C265.169 156.519 263.96 173.842 273.54 183.959C279.628 190.36 289.252 192.151 297.13 188.256C305.009 184.362 309.933 175.275 305.143 167.128C302.95 163.367 299.1 162.472 295.116 163.054C295.474 163.009 297.309 162.741 295.967 162.786C293.773 162.875 291.804 163.502 289.834 164.531C289.565 164.666 287.82 165.74 289.162 165.024C290.684 164.173 287.506 165.248 289.565 164.934C291.714 164.621 288.312 164.934 288.402 164.845C288.804 164.352 291.087 165.427 291.49 165.65C290.013 164.979 291.49 165.561 292.072 166.098C292.699 166.725 293.057 168.112 292.52 166.635L293.102 168.157C292.788 167.038 292.744 167.083 292.923 168.202C293.012 169.232 293.012 169.366 292.967 168.65C292.967 167.933 292.923 168.068 292.833 169.097C292.654 170.127 292.654 170.261 292.833 169.545C293.057 168.873 292.967 169.008 292.654 169.903C291.983 170.977 291.535 171.649 290.64 172.544C289.7 173.171 289.7 173.215 290.64 172.589L289.028 173.215C289.028 173.215 290.595 172.813 290.595 172.768C290.461 173.036 287.506 173.081 289.565 173.081L287.685 172.857C288.76 173.215 288.715 173.171 287.641 172.768C286.477 172.096 285.85 171.559 284.865 170.664C284.283 169.813 284.149 169.634 284.507 170.216C284.865 170.843 284.776 170.619 284.283 169.634C284.149 169.052 283.746 166.411 283.701 167.038C283.701 167.396 283.567 168.605 283.701 168.918C283.477 168.515 284.328 165.874 283.701 167.665C283.88 167.083 285.044 165.292 284.104 166.68C283.164 168.068 284.462 166.277 284.776 165.919C283.657 167.262 285.94 165.292 286.432 165.024C287.372 164.666 287.551 164.621 286.88 164.8C286.208 164.979 286.387 164.934 287.417 164.755C287.999 164.576 288.581 164.576 289.207 164.755C290.192 164.934 290.371 164.934 289.744 164.755C288.312 164.397 292.162 165.964 290.326 164.889C290.819 165.203 292.162 166.411 291.087 165.248C291.49 165.65 292.52 167.083 291.625 165.785C290.461 164.084 289.118 162.696 287.417 161.577C285.179 160.1 288.312 163.144 286.745 161.084C282.94 156.205 275.823 158.846 272.913 162.875L272.868 162.92Z" fill="#3E3D4D"/>
<path d="M410.248 158.13C405.1 159.07 401.564 164.755 400.311 169.455C398.251 177.065 402.37 184.898 409.084 188.569C420.051 194.612 434.286 189.151 439.076 177.781C444.134 165.784 437.151 152.624 424.886 148.864C419.246 147.118 412.979 147.834 407.831 150.654C401.34 154.19 397.669 160.905 397.043 168.112C396.282 176.751 402.37 185.212 410.651 187.495C418.932 189.778 427.706 185.973 432.361 178.766C435.45 174.021 434.913 167.888 432.361 163.098L432.227 162.83C429.362 157.413 421.081 153.519 415.083 155.847C411.591 157.19 409.039 158.532 406.756 161.532C404.921 163.904 405.145 163.636 407.428 160.726C410.024 158.98 410.651 158.443 409.263 159.114L412.979 157.548C412.665 157.682 412.307 157.771 411.949 157.816L416.067 157.279C415.709 157.279 415.351 157.279 415.038 157.279L419.156 157.816C418.798 157.771 418.485 157.682 418.171 157.503L421.842 159.07C425.826 163.949 427.169 165.247 425.871 162.875L427.437 166.545C427.258 166.142 427.169 165.739 427.124 165.337L427.661 169.41C427.661 168.962 427.661 168.56 427.661 168.112L427.124 172.185C427.214 171.738 427.303 171.335 427.482 170.932L425.96 174.603C426.274 173.976 427.437 172.275 425.826 174.468C425.378 175.229 424.796 175.856 423.991 176.304C422.737 177.154 422.558 177.333 423.453 176.841L419.828 178.363C420.365 178.139 420.902 177.96 421.484 177.826L417.455 178.363C418.261 178.273 418.977 178.273 419.783 178.363L415.754 177.826C416.336 177.915 416.873 178.139 417.455 178.273C415.665 177.96 414.456 177.244 413.337 175.856L413.784 176.259C414.769 177.333 414.366 176.796 412.486 174.558L411.457 172.006C411.591 172.364 411.68 172.767 411.725 173.125L411.188 169.186C411.233 169.813 411.233 170.35 411.188 170.977L411.725 167.038C411.233 169.186 413.65 163.904 412.352 165.739C412.665 165.292 415.038 162.919 413.292 164.397C412.262 165.292 416.649 162.293 414.545 163.367C415.396 162.964 418.216 162.158 415.754 162.695L419.604 162.158C418.977 162.248 418.44 162.248 417.813 162.158L421.663 162.695C419.514 162.293 424.572 164.531 422.916 163.367C423.006 163.412 425.647 165.918 424.617 164.576C423.677 163.367 422.334 162.337 421.081 161.576C420.544 161.263 419.38 160.413 421.35 161.89C422.379 162.74 422.648 162.964 422.2 162.516C421.529 161.845 421.931 162.382 423.409 164.173C423.319 164.173 421.708 161.8 422.066 162.248C419.156 158.488 415.038 157.279 410.382 158.13H410.248Z" fill="#3E3D4D"/>
<path d="M316.156 212.518C318.842 215.293 332.45 228.633 354.25 229.259C375.289 229.886 389.3 218.203 392.344 215.562" stroke="#3E3D4D" stroke-width="8.95275" stroke-miterlimit="10" stroke-linecap="round"/>
<path d="M265.976 130.063C271.437 112.963 291.491 107.994 304.428 120.439C309.083 124.915 316.246 117.842 311.545 113.321C293.103 95.55 264.051 103.025 256.262 127.377C254.292 133.554 264.006 136.195 265.976 130.063Z" fill="#3E3D4D"/>
<path d="M407.697 107.726C421.215 93.2671 443.239 100.071 446.82 119.364C448.029 125.721 457.698 123.035 456.534 116.679C451.565 89.9994 418.977 80.9124 400.579 100.608C396.148 105.353 403.265 112.471 407.697 107.726Z" fill="#3E3D4D"/>
</svg>
