<svg width="562" height="479" viewBox="0 0 562 479" fill="none" xmlns="http://www.w3.org/2000/svg">
<path d="M91.7915 464.558C132.477 464.35 164.983 371.24 164.396 256.591C163.809 141.941 130.352 49.1687 89.6669 49.3769C48.9818 49.5851 16.4756 142.695 17.0623 257.344C17.649 371.994 51.1064 464.766 91.7915 464.558Z" fill="#B5FF3F"/>
<path d="M435.013 166.927C436.037 77.3563 343.93 3.68261 229.287 2.37244C114.643 1.06227 20.8771 72.6118 19.8535 162.182C18.8298 251.753 110.937 325.426 225.58 326.737C340.223 328.047 433.989 256.498 435.013 166.927Z" fill="#B5FF3F"/>
<path d="M302.636 171.656C303.299 113.576 302.636 117.491 232.19 67.8269C201.634 102.991 159.298 113.575 158.634 171.656C157.971 229.737 167.658 227.254 232.191 227.992C296.725 228.729 301.972 229.737 302.636 171.656Z" fill="#F9FBF5"/>
<path d="M263.702 252.445C261.02 262.453 266.963 272.746 276.971 275.428C286.98 278.109 297.226 272.155 299.908 262.146C300.736 259.056 300.776 255.952 300.119 253.057C298.607 246.523 293.649 241.042 286.685 239.176C278.567 237 270.262 240.509 265.978 247.271C264.967 248.829 264.196 250.6 263.702 252.445Z" fill="#3E3D4D" stroke="#3E3D4D" stroke-width="8.53473" stroke-miterlimit="10" stroke-linecap="round"/>
<path d="M394.901 347.265C335.091 331.239 299.598 269.763 315.624 209.953C331.65 150.144 393.126 114.65 452.936 130.676C512.745 146.702 548.239 208.179 532.213 267.988C516.187 327.798 454.71 363.291 394.901 347.265Z" stroke="#FFB487" stroke-width="12.8021" stroke-miterlimit="10"/>
<path d="M255.897 170.232C262.554 171.769 265.824 179.121 265.974 185.389C266.204 193.756 260.047 200.312 252.41 202.616C240.524 206.204 227.336 197.677 224.653 185.737C223.016 178.377 224.969 171.09 230.066 165.535C234.208 160.96 240.317 158.642 246.346 158.28C252.375 157.919 258.634 160.387 263.221 164.483C269.074 169.759 270.953 177.875 269.634 185.381C268.008 194.585 259.702 200.862 250.717 201.371C241.732 201.88 233.451 194.965 230.708 186.568C228.912 181.094 230.926 174.318 235.034 170.426L235.234 170.232C240.33 165.418 248.695 163.903 254.827 167.77C258.757 170.257 261.512 173.813 262.78 178.305L261.155 174.409C261.265 174.735 261.446 174.982 261.674 175.24L259.112 171.885C259.34 172.143 259.567 172.402 259.865 172.581L256.469 169.941C256.755 170.165 257.066 170.298 257.422 170.443L253.327 168.753C253.65 168.839 254.019 168.938 254.342 169.025L249.951 168.441C250.286 168.481 250.633 168.476 250.993 168.424L246.779 169.025L247.268 168.859L243.372 170.485L243.84 170.215L240.484 172.776C240.847 172.527 241.165 172.266 241.414 171.888L238.787 175.237C239.024 174.906 239.273 174.528 239.385 174.112L237.707 178.161C237.818 177.746 237.929 177.331 238.04 176.916L237.469 181.261C237.534 180.834 237.507 180.382 237.48 179.93L238.035 184.132C237.931 183.412 237.732 182.864 237.511 182.212L239.103 186.049C238.912 185.652 238.676 185.243 238.415 184.926L240.943 188.223C240.681 187.906 240.408 187.635 240.135 187.364L243.45 189.933C242.959 189.554 242.534 189.292 241.972 188.993L245.975 190.659C245.215 190.357 244.523 190.171 243.715 190.053L248.014 190.612C247.193 190.54 246.452 190.539 245.627 190.665L249.783 190.098C249.202 190.238 248.633 190.333 248.085 190.532L251.876 188.928C251.153 189.229 250.51 189.6 249.842 190.064L253.08 187.57C252.763 187.831 252.505 188.058 252.267 188.39L254.824 185.121C254.445 185.612 254.183 186.037 253.884 186.599L255.525 182.689C255.319 183.276 255.17 183.829 255.056 184.441L255.59 180.234C255.537 180.616 255.577 181.022 255.616 181.428L255.07 177.376C255.11 177.782 255.195 178.201 255.293 178.573C254.042 175.865 253.775 175.2 254.447 176.567C255.629 178.613 251.338 173.41 254.033 175.714L250.843 173.228C251.335 173.607 251.851 173.894 252.367 174.18L248.549 172.564C249.124 172.817 249.631 172.953 250.256 173.021L246.141 172.512C246.765 172.58 247.322 172.532 247.937 172.449L243.99 172.974C245.793 172.518 241.926 173.854 241.901 173.946C241.938 173.808 242.803 173.348 243.024 173.259C244.194 172.583 245.779 172.019 247.025 171.612C248.434 171.149 247.705 171.102 245.144 172.541C247.354 171.305 243.171 174.188 244.31 173.257C247.694 170.407 251.537 169.163 255.863 170.174L255.897 170.232Z" fill="#3E3D4D"/>
<path d="M410.822 107.231C409.904 88.151 390.659 77.5073 373.94 86.77C367.907 90.097 362.481 80.8323 368.572 77.4716C392.468 64.2989 420.291 80.0096 421.56 107.192C421.883 114.1 411.146 114.14 410.81 107.277L410.822 107.231Z" fill="#3E3D4D"/>
<path d="M296.823 102.638C287.515 85.1652 264.532 86.0758 256.08 103.782C253.08 109.998 243.859 104.561 246.813 98.3332C258.734 73.3997 293.186 73.0411 306.122 97.2692C309.378 103.382 300.079 108.75 296.823 102.638Z" fill="#3E3D4D"/>
<path d="M329.439 312.622L164.199 445.762" stroke="#FFB487" stroke-width="21.3368" stroke-miterlimit="10" stroke-linecap="round"/>
<path d="M265.99 247.225C268.79 251.534 273.722 255.081 279.857 256.724C287.697 258.825 295.463 257.149 300.131 253.011C298.619 246.477 293.661 240.996 286.697 239.13C278.579 236.955 270.274 240.463 265.99 247.225Z" fill="white"/>
<path d="M37.3776 243.657C41.1699 315.66 82.0156 388.297 151.27 416.345C175.434 426.528 201.462 431.228 227.234 431.163C251.73 431.251 271.706 411.491 271.84 387.008C271.927 362.513 252.168 342.536 227.685 342.403C204.149 345.192 179.897 344.378 158.885 332.767C123.356 315.189 101.683 274.68 94.1253 236.469C86.4619 201.79 36.1064 208.367 37.4236 243.669L37.3776 243.657Z" fill="#B5FF3F"/>
<path d="M384.325 247.695C404.219 242.364 416.025 221.915 410.695 202.021C405.364 182.127 384.915 170.321 365.021 175.652C345.127 180.982 333.321 201.431 338.652 221.325C343.982 241.219 364.431 253.025 384.325 247.695Z" fill="#3E3D4D"/>
<path opacity="0.45" d="M391.371 345.677C331.561 329.651 296.029 268.319 312.007 208.688C327.985 149.057 389.423 113.708 449.233 129.733C509.042 145.759 544.575 207.092 528.596 266.723C512.618 326.354 451.18 361.703 391.371 345.677Z" fill="#B5FFDD"/>
</svg>
